<svg width="24" height="24" viewBox="0 0 24 24" fill="none" xmlns="http://www.w3.org/2000/svg">
<path d="M5.71841 18.956C3.40398 14.6869 3.40402 10.702 4.70334 8.51578M18.6157 8.51578C17.5857 6.42782 16.0407 5.38392 16.0407 5.38392C13.7986 4.0601 11.8496 3.3961 8.31554 4.72413M19.6455 12.6945C20.0575 13.9473 19.6455 14.4321 19.6455 14.7801M17.0707 17.39C14.4482 14.0228 16.5554 12.6917 15.0106 9.55987C12.4992 6.05282 9.25095 8.04532 8.31554 9.03786C7.8599 9.73061 7.70871 9.93236 7.61726 10.7672M13.9806 18.956C12.9506 17.738 10.9936 14.4667 11.4056 11.1259M9.86056 20C9.06951 18.3964 8.32806 16.9935 7.95165 14.6869" stroke="white" stroke-width="2" stroke-linecap="round" stroke-linejoin="round"/>
</svg>